<svg width="18" height="21" viewBox="0 0 18 21" fill="none" xmlns="http://www.w3.org/2000/svg">
<path d="M16.55 20.15C16.393 20.15 16.238 20.1 16.108 20.006L8.65 14.578L1.192 20.008C0.964 20.172 0.662 20.198 0.41 20.068C0.16 19.941 0 19.683 0 19.401V2.25C0 1.01 1.01 0 2.25 0H15.048C16.288 0 17.298 1.01 17.298 2.25V19.4C17.298 19.682 17.14 19.94 16.888 20.068C16.782 20.123 16.665 20.15 16.548 20.15H16.55ZM8.65 12.9C8.805 12.9 8.96 12.948 9.09 13.044L15.8 17.927V2.25C15.8 1.838 15.463 1.5 15.05 1.5H2.25C1.837 1.5 1.5 1.838 1.5 2.25V17.927L8.21 13.044C8.34 12.948 8.495 12.9 8.65 12.9V12.9Z" fill="black"/>
</svg>
