<svg width="23" height="21" viewBox="0 0 23 21" fill="none" xmlns="http://www.w3.org/2000/svg">
<path d="M21.6801 5.573L11.5751 0.12C11.2781 -0.04 10.9211 -0.04 10.6251 0.12L0.525055 5.573C0.0390549 5.837 -0.141945 6.443 0.120055 6.929C0.300055 7.264 0.645055 7.454 1.00005 7.454C1.16005 7.454 1.32405 7.416 1.47505 7.334L2.20905 6.938L3.79905 18.188C4.01505 19.402 5.10905 20.25 6.45905 20.25H15.7411C17.0911 20.25 18.1851 19.402 18.4031 18.162L19.9911 6.937L20.7281 7.335C21.2131 7.598 21.8201 7.417 22.0821 6.931C22.3451 6.445 22.1621 5.838 21.6781 5.576L21.6801 5.573ZM11.1001 13.658C9.30505 13.658 7.85005 12.203 7.85005 10.408C7.85005 8.613 9.30505 7.158 11.1001 7.158C12.8951 7.158 14.3501 8.613 14.3501 10.408C14.3501 12.203 12.8951 13.658 11.1001 13.658Z" fill="black"/>
</svg>
