<svg width="22" height="22" viewBox="0 0 22 22" fill="none" xmlns="http://www.w3.org/2000/svg">
<path d="M15.75 12.25C16.5784 12.25 17.25 11.5784 17.25 10.75C17.25 9.92157 16.5784 9.25 15.75 9.25C14.9216 9.25 14.25 9.92157 14.25 10.75C14.25 11.5784 14.9216 12.25 15.75 12.25Z" fill="black"/>
<path d="M10.75 12.25C11.5784 12.25 12.25 11.5784 12.25 10.75C12.25 9.92157 11.5784 9.25 10.75 9.25C9.92157 9.25 9.25 9.92157 9.25 10.75C9.25 11.5784 9.92157 12.25 10.75 12.25Z" fill="black"/>
<path d="M5.75 12.25C6.57843 12.25 7.25 11.5784 7.25 10.75C7.25 9.92157 6.57843 9.25 5.75 9.25C4.92157 9.25 4.25 9.92157 4.25 10.75C4.25 11.5784 4.92157 12.25 5.75 12.25Z" fill="black"/>
<path d="M10.75 21.5C4.822 21.5 0 16.678 0 10.75C0 4.822 4.822 0 10.75 0C16.678 0 21.5 4.822 21.5 10.75C21.5 16.678 16.678 21.5 10.75 21.5ZM10.75 1.5C5.65 1.5 1.5 5.65 1.5 10.75C1.5 15.85 5.65 20 10.75 20C15.85 20 20 15.85 20 10.75C20 5.65 15.85 1.5 10.75 1.5Z" fill="black"/>
</svg>
