<svg width="20" height="21" viewBox="0 0 20 21" fill="none" xmlns="http://www.w3.org/2000/svg">
<path d="M19.6978 14.536C19.6778 14.52 17.5578 12.896 17.5948 8.506C17.6148 5.973 16.7828 3.724 15.2478 2.172C13.8728 0.779 12.0108 0.008 10.0058 0H9.99277C7.98877 0.008 6.12677 0.78 4.75077 2.172C3.21677 3.725 2.38377 5.974 2.40477 8.505C2.44177 12.837 0.384768 14.472 0.302768 14.535C0.0427683 14.729 -0.0632318 15.065 0.0377682 15.373C0.138768 15.681 0.427768 15.888 0.750768 15.888H5.24477C5.34477 18.432 7.43277 20.475 10.0008 20.475C12.5688 20.475 14.6558 18.432 14.7568 15.888H19.2508C19.5748 15.888 19.8608 15.68 19.9628 15.373C20.0648 15.066 19.9578 14.729 19.6978 14.536V14.536ZM10.0008 18.476C8.53477 18.476 7.34377 17.329 7.24477 15.888H12.7568C12.6568 17.328 11.4668 18.475 10.0008 18.475V18.476Z" fill="black"/>
</svg>
