<svg width="20" height="21" viewBox="0 0 20 21" fill="none" xmlns="http://www.w3.org/2000/svg">
<path d="M18.6152 9.3371L1.09917 0.0871053C0.809167 -0.0648947 0.459167 -0.0148948 0.226167 0.213105C-0.00383304 0.439105 -0.0668329 0.790105 0.0761671 1.08111L4.43817 10.0011L0.0761671 18.9211C-0.0668329 19.2131 -0.00383304 19.5641 0.226167 19.7891C0.371167 19.9291 0.559167 20.0011 0.749167 20.0011C0.869167 20.0011 0.989167 19.9731 1.09917 19.9141L18.6162 10.6641C18.8612 10.5341 19.0162 10.2781 19.0162 10.0001C19.0162 9.7221 18.8612 9.46811 18.6162 9.33811L18.6152 9.3371ZM2.43317 2.48911L15.2372 9.25111H5.74017L2.43317 2.49111V2.48911ZM5.74017 10.7491H15.2382L2.43317 17.5141L5.74017 10.7511V10.7491Z" fill="#1d9bf0"/>
</svg>
